<svg width="214" height="40" viewBox="0 0 214 40" fill="none" xmlns="http://www.w3.org/2000/svg">
<path d="M73.5332 15.7422C73.5332 15.9141 73.4316 16 73.2285 16H71.8867C71.7344 16 71.5703 15.9473 71.3945 15.8418C71.2188 15.7324 71.082 15.6016 70.9844 15.4492L69.9531 13.8145C69.707 13.416 69.459 13.1172 69.209 12.918C68.959 12.7148 68.6582 12.6133 68.3066 12.6133H67.0469V15.4609C67.0469 15.6133 66.9922 15.7422 66.8828 15.8477C66.7773 15.9492 66.6484 16 66.4961 16H65.3945C65.2422 16 65.1113 15.9453 65.002 15.8359C64.8926 15.7227 64.8379 15.5898 64.8379 15.4375V8.1543C64.8379 8.00195 64.8926 7.86914 65.002 7.75586C65.1113 7.64258 65.2422 7.58594 65.3945 7.58594H66.4961C66.6484 7.58594 66.7773 7.64258 66.8828 7.75586C66.9922 7.86914 67.0469 8.00195 67.0469 8.1543V10.9609H68.3066C68.6504 10.9609 68.9512 10.8672 69.209 10.6797C69.4707 10.4922 69.7188 10.1895 69.9531 9.77148L70.8613 8.1543C71.0684 7.7793 71.3496 7.58984 71.7051 7.58594H73.0586C73.2461 7.58594 73.3398 7.66797 73.3398 7.83203C73.3398 7.92188 73.3066 8.0293 73.2402 8.1543L71.9688 10.457C71.7852 10.793 71.5781 11.0703 71.3477 11.2891C71.1211 11.5078 70.8242 11.6621 70.457 11.752C70.7148 11.8066 70.9785 11.9688 71.248 12.2383C71.5215 12.5078 71.7617 12.8008 71.9688 13.1172L73.4336 15.4492C73.5 15.5625 73.5332 15.6602 73.5332 15.7422ZM74.377 15.4492V8.1543C74.377 8.00195 74.4316 7.87109 74.541 7.76172C74.6504 7.65234 74.7852 7.59766 74.9453 7.59766H76.0352C76.1875 7.59766 76.3164 7.65234 76.4219 7.76172C76.5312 7.87109 76.5859 8.00195 76.5859 8.1543V10.791H80.6172V8.1543C80.6172 8.00195 80.6719 7.87109 80.7812 7.76172C80.8906 7.65234 81.0215 7.59766 81.1738 7.59766H82.2637C82.4238 7.59766 82.5566 7.65234 82.6621 7.76172C82.7715 7.87109 82.8262 8.00195 82.8262 8.1543V15.4492C82.8262 15.6016 82.7695 15.7324 82.6562 15.8418C82.5469 15.9473 82.416 16 82.2637 16H81.1738C81.0215 16 80.8906 15.9492 80.7812 15.8477C80.6719 15.7422 80.6172 15.6133 80.6172 15.4609V12.4492H76.5859V15.4609C76.5859 15.6133 76.5312 15.7422 76.4219 15.8477C76.3164 15.9492 76.1875 16 76.0352 16H74.9453C74.793 16 74.6602 15.9473 74.5469 15.8418C74.4336 15.7324 74.377 15.6016 74.377 15.4492ZM84.5137 15.4492V8.1543C84.5137 7.99414 84.5664 7.86133 84.6719 7.75586C84.7773 7.65039 84.9102 7.59766 85.0703 7.59766H86.1016C86.2539 7.59766 86.3828 7.65039 86.4883 7.75586C86.5977 7.86133 86.6523 7.99023 86.6523 8.14258V14.0078L89.9863 8.1543C90.0762 8.00195 90.1992 7.87109 90.3555 7.76172C90.5117 7.65234 90.6562 7.59766 90.7891 7.59766H92.5176C92.6699 7.59766 92.7988 7.65234 92.9043 7.76172C93.0098 7.87109 93.0625 8.00195 93.0625 8.1543V15.4492C93.0625 15.6016 93.0078 15.7324 92.8984 15.8418C92.7891 15.9473 92.6582 16 92.5059 16H91.4746C91.3223 16 91.1914 15.9473 91.082 15.8418C90.9766 15.7324 90.9238 15.6016 90.9238 15.4492V10.0117L87.8652 15.4492C87.7754 15.6016 87.6484 15.7324 87.4844 15.8418C87.3203 15.9473 87.1621 16 87.0098 16H85.0703C84.918 16 84.7871 15.9473 84.6777 15.8418C84.5684 15.7324 84.5137 15.6016 84.5137 15.4492ZM94.1113 7.82617C94.1113 7.66602 94.2031 7.58594 94.3867 7.58594H95.7402C96.0918 7.58594 96.373 7.77539 96.584 8.1543L97.4922 9.77148C97.7266 10.1895 97.9727 10.4922 98.2305 10.6797C98.4922 10.8672 98.7949 10.9609 99.1387 10.9609H99.4023V8.1543C99.4023 8.00195 99.4551 7.86914 99.5605 7.75586C99.6699 7.64258 99.8008 7.58594 99.9531 7.58594H101.061C101.213 7.58594 101.342 7.64258 101.447 7.75586C101.557 7.86914 101.611 8.00195 101.611 8.1543V10.9609H101.875C102.219 10.9609 102.52 10.8672 102.777 10.6797C103.039 10.4922 103.285 10.1895 103.516 9.77148L104.43 8.1543C104.637 7.77539 104.916 7.58594 105.268 7.58594H106.627C106.779 7.58594 106.871 7.63867 106.902 7.74414V7.82617C106.902 7.92383 106.871 8.0332 106.809 8.1543L105.537 10.457C105.35 10.793 105.143 11.0703 104.916 11.2891C104.689 11.5078 104.391 11.6621 104.02 11.752C104.277 11.8066 104.541 11.9688 104.811 12.2383C105.084 12.5078 105.326 12.8008 105.537 13.1172L106.996 15.4492C107.102 15.6211 107.131 15.7559 107.084 15.8535C107.041 15.9512 106.945 16 106.797 16H105.449C105.297 16 105.133 15.9473 104.957 15.8418C104.781 15.7324 104.646 15.6016 104.553 15.4492L103.516 13.8145C103.27 13.416 103.021 13.1172 102.771 12.918C102.525 12.7148 102.227 12.6133 101.875 12.6133H101.611V15.4609C101.611 15.6133 101.557 15.7422 101.447 15.8477C101.342 15.9492 101.213 16 101.061 16H99.9531C99.8008 16 99.6699 15.9492 99.5605 15.8477C99.4551 15.7422 99.4023 15.6133 99.4023 15.4609V12.6133H99.1387C98.7871 12.6133 98.4863 12.7148 98.2363 12.918C97.9902 13.1172 97.7422 13.416 97.4922 13.8145L96.4609 15.4492C96.3672 15.6016 96.2324 15.7324 96.0566 15.8418C95.8809 15.9473 95.7168 16 95.5645 16H94.2168C94.0645 16 93.9688 15.9473 93.9297 15.8418C93.9141 15.8105 93.9062 15.7656 93.9062 15.707C93.9062 15.6445 93.9414 15.5586 94.0117 15.4492L95.4766 13.1172C95.6875 12.8008 95.9277 12.5078 96.1973 12.2383C96.4707 11.9688 96.7344 11.8066 96.9883 11.752C96.6211 11.6621 96.3223 11.5078 96.0918 11.2891C95.8652 11.0703 95.6602 10.793 95.4766 10.457L94.2051 8.1543C94.1426 8.0332 94.1113 7.92383 94.1113 7.82617ZM107.951 15.4492V8.1543C107.951 8.00195 108.006 7.87109 108.115 7.76172C108.225 7.65234 108.359 7.59766 108.52 7.59766H109.609C109.762 7.59766 109.891 7.65234 109.996 7.76172C110.105 7.87109 110.16 8.00195 110.16 8.1543V10.791H114.191V8.1543C114.191 8.00195 114.246 7.87109 114.355 7.76172C114.465 7.65234 114.596 7.59766 114.748 7.59766H115.838C115.998 7.59766 116.131 7.65234 116.236 7.76172C116.346 7.87109 116.4 8.00195 116.4 8.1543V15.4492C116.4 15.6016 116.344 15.7324 116.23 15.8418C116.121 15.9473 115.99 16 115.838 16H114.748C114.596 16 114.465 15.9492 114.355 15.8477C114.246 15.7422 114.191 15.6133 114.191 15.4609V12.4492H110.16V15.4609C110.16 15.6133 110.105 15.7422 109.996 15.8477C109.891 15.9492 109.762 16 109.609 16H108.52C108.367 16 108.234 15.9473 108.121 15.8418C108.008 15.7324 107.951 15.6016 107.951 15.4492ZM118.088 15.4375V8.1543C118.088 7.99414 118.141 7.86133 118.246 7.75586C118.352 7.65039 118.484 7.59766 118.645 7.59766H119.746C119.898 7.59766 120.027 7.65234 120.133 7.76172C120.242 7.87109 120.297 8.00195 120.297 8.1543V10.457H122.711C123.629 10.457 124.391 10.7012 124.996 11.1895C125.602 11.6777 125.904 12.3574 125.904 13.2285C125.904 14.0996 125.602 14.7793 124.996 15.2676C124.391 15.7559 123.629 16 122.711 16H118.615C118.475 16 118.352 15.9453 118.246 15.8359C118.141 15.7227 118.088 15.5898 118.088 15.4375ZM120.297 14.3418H122.711C123.367 14.3418 123.695 13.9707 123.695 13.2285C123.695 12.4824 123.367 12.1094 122.711 12.1094H120.297V14.3418ZM127.076 15.4609V8.1543C127.076 8.00195 127.131 7.87109 127.24 7.76172C127.35 7.65234 127.48 7.59766 127.633 7.59766H128.746C128.906 7.59766 129.039 7.65234 129.145 7.76172C129.254 7.87109 129.309 8.00195 129.309 8.1543V15.4492C129.309 15.6016 129.252 15.7324 129.139 15.8418C129.029 15.9473 128.898 16 128.746 16H127.633C127.48 16 127.35 15.9492 127.24 15.8477C127.131 15.7422 127.076 15.6133 127.076 15.4609ZM130.99 15.4492V8.1543C130.99 7.99414 131.043 7.86133 131.148 7.75586C131.254 7.65039 131.387 7.59766 131.547 7.59766H132.578C132.73 7.59766 132.859 7.65039 132.965 7.75586C133.074 7.86133 133.129 7.99023 133.129 8.14258V14.0078L136.463 8.1543C136.553 8.00195 136.676 7.87109 136.832 7.76172C136.988 7.65234 137.133 7.59766 137.266 7.59766H138.994C139.146 7.59766 139.275 7.65234 139.381 7.76172C139.486 7.87109 139.539 8.00195 139.539 8.1543V15.4492C139.539 15.6016 139.484 15.7324 139.375 15.8418C139.266 15.9473 139.135 16 138.982 16H137.951C137.799 16 137.668 15.9473 137.559 15.8418C137.453 15.7324 137.4 15.6016 137.4 15.4492V10.0117L134.342 15.4492C134.252 15.6016 134.125 15.7324 133.961 15.8418C133.797 15.9473 133.639 16 133.486 16H131.547C131.395 16 131.264 15.9473 131.154 15.8418C131.045 15.7324 130.99 15.6016 130.99 15.4492ZM133.299 5.20117C133.299 5.00195 133.406 4.90234 133.621 4.90234H134.102C134.293 4.90234 134.428 5.00195 134.506 5.20117C134.619 5.47852 134.871 5.61719 135.262 5.61719C135.656 5.61719 135.908 5.47852 136.018 5.20117C136.1 5.00195 136.236 4.90234 136.428 4.90234H136.908C137.123 4.90234 137.23 5.00195 137.23 5.20117C137.23 5.73633 137.051 6.16016 136.691 6.47266C136.332 6.78516 135.855 6.94141 135.262 6.94141C134.672 6.94141 134.197 6.78516 133.838 6.47266C133.479 6.16016 133.299 5.73633 133.299 5.20117ZM66.6133 29.2363L67.5977 29.3418H67.7207C68.498 29.3418 69.0293 28.834 69.3145 27.8184H68.8105C67.8262 27.8184 67.0586 27.6191 66.5078 27.2207C65.957 26.8184 65.4844 26.166 65.0898 25.2637L64.1699 23.1543C64.1035 22.998 64.1016 22.8672 64.1641 22.7617C64.2305 22.6523 64.3398 22.5977 64.4922 22.5977H65.7285C66.1035 22.5977 66.3633 22.7754 66.5078 23.1309L67.1816 24.7598C67.3809 25.2324 67.6309 25.5859 67.9316 25.8203C68.2324 26.0508 68.6289 26.166 69.1211 26.166H69.8418L70.9023 23.1426C70.957 22.9746 71.0527 22.8418 71.1895 22.7441C71.3262 22.6465 71.4746 22.5977 71.6348 22.5977H72.8184C72.9707 22.5977 73.0762 22.6406 73.1348 22.7266C73.1934 22.8086 73.2227 22.8828 73.2227 22.9492C73.2227 23.0117 73.2129 23.0723 73.1934 23.1309L71.2832 28.5977C71.0176 29.3672 70.6172 29.9609 70.082 30.3789C69.5469 30.793 68.7988 31 67.8379 31H66.4258C66.2734 31 66.1426 30.9473 66.0332 30.8418C65.9238 30.7324 65.8691 30.6016 65.8691 30.4492V29.7871C65.8691 29.6348 65.9219 29.5059 66.0273 29.4004C66.1328 29.291 66.2656 29.2363 66.4258 29.2363H66.6133ZM74.1895 30.4609V23.1543C74.1895 22.9941 74.2422 22.8613 74.3477 22.7559C74.4531 22.6504 74.5859 22.5977 74.7461 22.5977H80.4062C80.5664 22.5977 80.6973 22.6504 80.7988 22.7559C80.9043 22.8613 80.957 22.9941 80.957 23.1543V23.7051C80.957 23.8652 80.9043 23.998 80.7988 24.1035C80.6973 24.2051 80.5664 24.2559 80.4062 24.2559H76.3984V30.4609C76.3984 30.6133 76.3438 30.7422 76.2344 30.8477C76.1289 30.9492 76 31 75.8477 31H74.7461C74.5938 31 74.4629 30.9492 74.3535 30.8477C74.2441 30.7422 74.1895 30.6133 74.1895 30.4609ZM89.5 30.1328C88.7031 30.832 87.5312 31.1816 85.9844 31.1816C84.4414 31.1816 83.2695 30.832 82.4688 30.1328C81.668 29.4297 81.2676 28.3184 81.2676 26.7988C81.2676 25.2793 81.668 24.1699 82.4688 23.4707C83.2695 22.7715 84.4414 22.4219 85.9844 22.4219C87.5312 22.4219 88.7031 22.7715 89.5 23.4707C90.3008 24.1699 90.7012 25.2793 90.7012 26.7988C90.7012 28.3184 90.3008 29.4297 89.5 30.1328ZM87.9004 24.707C87.5059 24.2383 86.8672 24.0039 85.9844 24.0039C85.1055 24.0039 84.4668 24.2383 84.0684 24.707C83.6738 25.1758 83.4766 25.875 83.4766 26.8047C83.4766 27.7305 83.6738 28.4277 84.0684 28.8965C84.4668 29.3613 85.1055 29.5938 85.9844 29.5938C86.8672 29.5938 87.5059 29.3613 87.9004 28.8965C88.2949 28.4277 88.4922 27.7305 88.4922 26.8047C88.4922 25.875 88.2949 25.1758 87.9004 24.707ZM91.2168 30.5078L92.7051 24.8828C93.1035 23.3633 94.3984 22.6016 96.5898 22.5977H99.5195C99.6562 22.5977 99.7715 22.6543 99.8652 22.7676C99.9629 22.8809 100.012 23.0098 100.012 23.1543V30.4492C100.012 30.6016 99.959 30.7324 99.8535 30.8418C99.752 30.9473 99.625 31 99.4727 31H98.3535C98.2012 31 98.0703 30.9473 97.9609 30.8418C97.8555 30.7324 97.8027 30.6016 97.8027 30.4492V24.2559H96.373C95.998 24.2559 95.6699 24.3633 95.3887 24.5781C95.1113 24.7891 94.9238 25.0742 94.8262 25.4336L93.4844 30.4492C93.4453 30.6094 93.3574 30.7422 93.2207 30.8477C93.084 30.9492 92.9395 31 92.7871 31H91.5977C91.4609 31 91.3594 30.957 91.293 30.8711C91.2305 30.7852 91.1992 30.7129 91.1992 30.6543C91.2031 30.5957 91.209 30.5469 91.2168 30.5078ZM109.445 30.1328C108.648 30.832 107.477 31.1816 105.93 31.1816C104.387 31.1816 103.215 30.832 102.414 30.1328C101.613 29.4297 101.213 28.3184 101.213 26.7988C101.213 25.2793 101.613 24.1699 102.414 23.4707C103.215 22.7715 104.387 22.4219 105.93 22.4219C107.477 22.4219 108.648 22.7715 109.445 23.4707C110.246 24.1699 110.646 25.2793 110.646 26.7988C110.646 28.3184 110.246 29.4297 109.445 30.1328ZM107.846 24.707C107.451 24.2383 106.812 24.0039 105.93 24.0039C105.051 24.0039 104.412 24.2383 104.014 24.707C103.619 25.1758 103.422 25.875 103.422 26.8047C103.422 27.7305 103.619 28.4277 104.014 28.8965C104.412 29.3613 105.051 29.5938 105.93 29.5938C106.812 29.5938 107.451 29.3613 107.846 28.8965C108.24 28.4277 108.438 27.7305 108.438 26.8047C108.438 25.875 108.24 25.1758 107.846 24.707ZM120.549 30.7422C120.549 30.9141 120.447 31 120.244 31H118.902C118.75 31 118.586 30.9473 118.41 30.8418C118.234 30.7324 118.098 30.6016 118 30.4492L116.969 28.8145C116.723 28.416 116.475 28.1172 116.225 27.918C115.975 27.7148 115.674 27.6133 115.322 27.6133H114.062V30.4609C114.062 30.6133 114.008 30.7422 113.898 30.8477C113.793 30.9492 113.664 31 113.512 31H112.41C112.258 31 112.127 30.9453 112.018 30.8359C111.908 30.7227 111.854 30.5898 111.854 30.4375V23.1543C111.854 23.002 111.908 22.8691 112.018 22.7559C112.127 22.6426 112.258 22.5859 112.41 22.5859H113.512C113.664 22.5859 113.793 22.6426 113.898 22.7559C114.008 22.8691 114.062 23.002 114.062 23.1543V25.9609H115.322C115.666 25.9609 115.967 25.8672 116.225 25.6797C116.486 25.4922 116.734 25.1895 116.969 24.7715L117.877 23.1543C118.084 22.7793 118.365 22.5898 118.721 22.5859H120.074C120.262 22.5859 120.355 22.668 120.355 22.832C120.355 22.9219 120.322 23.0293 120.256 23.1543L118.984 25.457C118.801 25.793 118.594 26.0703 118.363 26.2891C118.137 26.5078 117.84 26.6621 117.473 26.752C117.73 26.8066 117.994 26.9688 118.264 27.2383C118.537 27.5078 118.777 27.8008 118.984 28.1172L120.449 30.4492C120.516 30.5625 120.549 30.6602 120.549 30.7422Z" fill="white"/>
<rect x="52" y="5" width="2" height="26" fill="white"/>
<path d="M39.9986 8.95795V8.07537L22.035 1.90213L0 14.6977V14.9145V15.3615V15.5817V18.6172V19.2824V19.4991L1.52525 20.0232L0 20.9105V21.1259V21.5736V21.7924V24.8286V25.4944V25.7105L1.52525 26.2346L0 27.124V27.338V27.7857V28.0065V31.0407V31.7065V31.9239L17.9636 38.0972L40 25.3016V24.419L39.3996 24.1886V21.7277L40 21.3794V20.4975L38.4754 19.9734L40 19.0868V18.2035L39.3996 17.9759V15.5149L40 15.1659V14.2847L38.4754 13.7606L40 12.874V11.99L39.3996 11.7631V9.30212L39.9986 8.95795ZM22.8794 2.69679L1.93416 14.8586L1.14292 14.588L22.0882 2.42622L22.8794 2.69679ZM0.972535 18.6172V18.3998V18.0263V15.917V15.6975L1.52389 15.887V16.1065V17.6896V18.0631V18.8046V19.142L0.972535 18.9532V18.6172ZM2.91351 20.5002L1.93553 21.0673L1.14428 20.7967L2.12363 20.229L2.91351 20.5002ZM0.972535 24.8279V24.6091V24.237V22.1277V21.9083L1.52389 22.0964V22.3172V23.901V24.2725V25.0126V25.3513L0.972535 25.1632V24.8279ZM2.91351 26.7116L1.93553 27.2794L1.14428 27.0054L2.12363 26.4397L2.91351 26.7116ZM0.972535 31.0414V30.8212V30.4512V28.3412V28.1224L1.52389 28.3085V28.5293V30.1145V30.4846V31.2261V31.5668L0.972535 31.3774V31.0414ZM2.15975 31.7815V31.4428V30.0934V29.7206V28.7453V28.5231L3.4158 28.9559L3.80767 29.0888L17.965 33.9556L36.2407 23.3286L36.5958 23.1221L38.763 21.8606V22.0923V23.9426V24.2847V24.7652V25.1298L17.965 37.2105L2.15975 31.7815ZM37.5186 19.6456L37.5152 19.647L37.2453 19.8051L36.9754 19.9646L33.5296 21.9628L33.1745 22.1713L17.9636 31.0039L6.90724 27.2017L6.51537 27.0681L3.8656 26.1603L3.07572 25.8884L2.77653 25.7861L2.47734 25.6866L2.16043 25.5783V25.2409V23.8922V23.5187V22.5421V22.3199L3.41648 22.7527L3.80836 22.8863L6.00218 23.6393L6.30137 23.7402L6.5992 23.8411L7.39044 24.113L9.93389 24.9867L10.3258 25.1216L17.967 27.7476L29.7758 20.8819L30.1309 20.674L33.4437 18.748L33.717 18.5892L33.9781 18.4359L33.9876 18.4298L36.2421 17.1212L36.5972 16.9147L38.7671 15.6539V15.8863V17.736V18.0767V18.5558V18.9246L37.5186 19.6456ZM37.5186 13.4356L37.1206 13.2986L37.1172 13.2999L37.5152 13.4369L37.2453 13.5944L36.9754 13.7538L33.5296 15.7548L33.1745 15.9599L30.8035 17.3373L30.7872 17.3468L30.5289 17.4961L30.2569 17.6549L27.0592 19.5127L26.7041 19.7206L17.9636 24.7945L13.4219 23.2352L13.0301 23.1016L10.5834 22.2613L9.7935 21.9894L9.49431 21.8885L9.19512 21.7876L6.90588 21.0012L6.514 20.8676L3.86356 19.9577L3.07435 19.6851L2.77517 19.5836L2.47393 19.48L2.15702 19.3716V19.0343V17.6842V17.3121V16.3348V16.1146L3.41307 16.546L3.80495 16.6796L5.99877 17.4341L6.29796 17.5356L6.59579 17.6372L7.38704 17.9091L9.93048 18.7828L10.3224 18.9191L12.72 19.7431L13.0198 19.8446L13.319 19.9462L14.1082 20.2174L16.4486 21.0216L16.8405 21.1552L17.9663 21.5436L23.3074 18.4352L23.6625 18.2301L26.7294 16.4465L27.0013 16.2871L27.2528 16.1426L27.2746 16.1276L29.7758 14.6753L30.1309 14.4674L33.4437 12.5414L33.717 12.3819L33.9815 12.2293L33.991 12.2231L36.2455 10.9139L36.5999 10.7074L38.7671 9.4466V9.679V11.5287V11.8694V12.3485V12.7166L37.5186 13.4356Z" fill="white"/>
</svg>
