<svg width="40" height="38" viewBox="0 0 40 38" fill="none" xmlns="http://www.w3.org/2000/svg">
<path d="M39.9986 7.95795V7.07537L22.035 0.90213L0 13.6977V13.9145V14.3615V14.5817V17.6172V18.2824V18.4991L1.52525 19.0232L0 19.9105V20.1259V20.5736V20.7924V23.8286V24.4944V24.7105L1.52525 25.2346L0 26.124V26.338V26.7857V27.0065V30.0407V30.7065V30.9239L17.9636 37.0972L40 24.3016V23.419L39.3996 23.1886V20.7277L40 20.3794V19.4975L38.4754 18.9734L40 18.0868V17.2035L39.3996 16.9759V14.5149L40 14.1659V13.2847L38.4754 12.7606L40 11.874V10.99L39.3996 10.7631V8.30212L39.9986 7.95795ZM22.8794 1.69679L1.93416 13.8586L1.14292 13.588L22.0882 1.42622L22.8794 1.69679ZM0.972535 17.6172V17.3998V17.0263V14.917V14.6975L1.52389 14.887V15.1065V16.6896V17.0631V17.8046V18.142L0.972535 17.9532V17.6172ZM2.91351 19.5002L1.93553 20.0673L1.14428 19.7967L2.12363 19.229L2.91351 19.5002ZM0.972535 23.8279V23.6091V23.237V21.1277V20.9083L1.52389 21.0964V21.3172V22.901V23.2725V24.0126V24.3513L0.972535 24.1632V23.8279ZM2.91351 25.7116L1.93553 26.2794L1.14428 26.0054L2.12363 25.4397L2.91351 25.7116ZM0.972535 30.0414V29.8212V29.4512V27.3412V27.1224L1.52389 27.3085V27.5293V29.1145V29.4846V30.2261V30.5668L0.972535 30.3774V30.0414ZM2.15975 30.7815V30.4428V29.0934V28.7206V27.7453V27.5231L3.4158 27.9559L3.80767 28.0888L17.965 32.9556L36.2407 22.3286L36.5958 22.1221L38.763 20.8606V21.0923V22.9426V23.2847V23.7652V24.1298L17.965 36.2105L2.15975 30.7815ZM37.5186 18.6456L37.5152 18.647L37.2453 18.8051L36.9754 18.9646L33.5296 20.9628L33.1745 21.1713L17.9636 30.0039L6.90724 26.2017L6.51537 26.0681L3.8656 25.1603L3.07572 24.8884L2.77653 24.7861L2.47734 24.6866L2.16043 24.5783V24.2409V22.8922V22.5187V21.5421V21.3199L3.41648 21.7527L3.80836 21.8863L6.00218 22.6393L6.30137 22.7402L6.5992 22.8411L7.39044 23.113L9.93389 23.9867L10.3258 24.1217L17.967 26.7476L29.7758 19.8819L30.1308 19.674L33.4437 17.748L33.717 17.5892L33.9781 17.4359L33.9876 17.4298L36.2421 16.1212L36.5971 15.9147L38.7671 14.6539V14.8863V16.736V17.0767V17.5558V17.9246L37.5186 18.6456ZM37.5186 12.4356L37.1206 12.2986L37.1172 12.2999L37.5152 12.4369L37.2453 12.5944L36.9754 12.7538L33.5296 14.7548L33.1745 14.9599L30.8035 16.3373L30.7872 16.3468L30.5289 16.4961L30.2569 16.6549L27.0592 18.5127L26.7041 18.7206L17.9636 23.7945L13.4219 22.2352L13.0301 22.1016L10.5834 21.2613L9.7935 20.9894L9.49431 20.8885L9.19512 20.7876L6.90588 20.0012L6.514 19.8676L3.86356 18.9577L3.07435 18.6851L2.77517 18.5836L2.47393 18.48L2.15702 18.3716V18.0343V16.6842V16.3121V15.3348V15.1146L3.41307 15.546L3.80495 15.6796L5.99877 16.4341L6.29796 16.5356L6.59579 16.6372L7.38704 16.9091L9.93048 17.7828L10.3224 17.9191L12.72 18.7431L13.0198 18.8446L13.319 18.9462L14.1082 19.2174L16.4486 20.0216L16.8405 20.1552L17.9663 20.5436L23.3074 17.4352L23.6625 17.2301L26.7294 15.4465L27.0013 15.2871L27.2528 15.1426L27.2746 15.1276L29.7758 13.6753L30.1308 13.4674L33.4437 11.5414L33.717 11.3819L33.9815 11.2293L33.991 11.2231L36.2455 9.91392L36.5999 9.70742L38.7671 8.4466V8.679V10.5287V10.8694V11.3485V11.7166L37.5186 12.4356Z" fill="white"/>
</svg>
