<svg width="76" height="28" viewBox="0 0 76 28" fill="none" xmlns="http://www.w3.org/2000/svg">
<path d="M9.5332 11.7422C9.5332 11.9141 9.43164 12 9.22852 12H7.88672C7.73438 12 7.57031 11.9473 7.39453 11.8418C7.21875 11.7324 7.08203 11.6016 6.98438 11.4492L5.95312 9.81445C5.70703 9.41602 5.45898 9.11719 5.20898 8.91797C4.95898 8.71484 4.6582 8.61328 4.30664 8.61328H3.04688V11.4609C3.04688 11.6133 2.99219 11.7422 2.88281 11.8477C2.77734 11.9492 2.64844 12 2.49609 12H1.39453C1.24219 12 1.11133 11.9453 1.00195 11.8359C0.892578 11.7227 0.837891 11.5898 0.837891 11.4375V4.1543C0.837891 4.00195 0.892578 3.86914 1.00195 3.75586C1.11133 3.64258 1.24219 3.58594 1.39453 3.58594H2.49609C2.64844 3.58594 2.77734 3.64258 2.88281 3.75586C2.99219 3.86914 3.04688 4.00195 3.04688 4.1543V6.96094H4.30664C4.65039 6.96094 4.95117 6.86719 5.20898 6.67969C5.4707 6.49219 5.71875 6.18945 5.95312 5.77148L6.86133 4.1543C7.06836 3.7793 7.34961 3.58984 7.70508 3.58594H9.05859C9.24609 3.58594 9.33984 3.66797 9.33984 3.83203C9.33984 3.92187 9.30664 4.0293 9.24023 4.1543L7.96875 6.45703C7.78516 6.79297 7.57812 7.07031 7.34766 7.28906C7.12109 7.50781 6.82422 7.66211 6.45703 7.75195C6.71484 7.80664 6.97852 7.96875 7.24805 8.23828C7.52148 8.50781 7.76172 8.80078 7.96875 9.11719L9.43359 11.4492C9.5 11.5625 9.5332 11.6602 9.5332 11.7422ZM10.377 11.4492V4.1543C10.377 4.00195 10.4316 3.87109 10.541 3.76172C10.6504 3.65234 10.7852 3.59766 10.9453 3.59766H12.0352C12.1875 3.59766 12.3164 3.65234 12.4219 3.76172C12.5312 3.87109 12.5859 4.00195 12.5859 4.1543V6.79102H16.6172V4.1543C16.6172 4.00195 16.6719 3.87109 16.7812 3.76172C16.8906 3.65234 17.0215 3.59766 17.1738 3.59766H18.2637C18.4238 3.59766 18.5566 3.65234 18.6621 3.76172C18.7715 3.87109 18.8262 4.00195 18.8262 4.1543V11.4492C18.8262 11.6016 18.7695 11.7324 18.6562 11.8418C18.5469 11.9473 18.416 12 18.2637 12H17.1738C17.0215 12 16.8906 11.9492 16.7812 11.8477C16.6719 11.7422 16.6172 11.6133 16.6172 11.4609V8.44922H12.5859V11.4609C12.5859 11.6133 12.5312 11.7422 12.4219 11.8477C12.3164 11.9492 12.1875 12 12.0352 12H10.9453C10.793 12 10.6602 11.9473 10.5469 11.8418C10.4336 11.7324 10.377 11.6016 10.377 11.4492ZM20.5137 11.4492V4.1543C20.5137 3.99414 20.5664 3.86133 20.6719 3.75586C20.7773 3.65039 20.9102 3.59766 21.0703 3.59766H22.1016C22.2539 3.59766 22.3828 3.65039 22.4883 3.75586C22.5977 3.86133 22.6523 3.99023 22.6523 4.14258V10.0078L25.9863 4.1543C26.0762 4.00195 26.1992 3.87109 26.3555 3.76172C26.5117 3.65234 26.6562 3.59766 26.7891 3.59766H28.5176C28.6699 3.59766 28.7988 3.65234 28.9043 3.76172C29.0098 3.87109 29.0625 4.00195 29.0625 4.1543V11.4492C29.0625 11.6016 29.0078 11.7324 28.8984 11.8418C28.7891 11.9473 28.6582 12 28.5059 12H27.4746C27.3223 12 27.1914 11.9473 27.082 11.8418C26.9766 11.7324 26.9238 11.6016 26.9238 11.4492V6.01172L23.8652 11.4492C23.7754 11.6016 23.6484 11.7324 23.4844 11.8418C23.3203 11.9473 23.1621 12 23.0098 12H21.0703C20.918 12 20.7871 11.9473 20.6777 11.8418C20.5684 11.7324 20.5137 11.6016 20.5137 11.4492ZM30.1113 3.82617C30.1113 3.66602 30.2031 3.58594 30.3867 3.58594H31.7402C32.0918 3.58594 32.373 3.77539 32.584 4.1543L33.4922 5.77148C33.7266 6.18945 33.9727 6.49219 34.2305 6.67969C34.4922 6.86719 34.7949 6.96094 35.1387 6.96094H35.4023V4.1543C35.4023 4.00195 35.4551 3.86914 35.5605 3.75586C35.6699 3.64258 35.8008 3.58594 35.9531 3.58594H37.0605C37.2129 3.58594 37.3418 3.64258 37.4473 3.75586C37.5566 3.86914 37.6113 4.00195 37.6113 4.1543V6.96094H37.875C38.2188 6.96094 38.5195 6.86719 38.7773 6.67969C39.0391 6.49219 39.2852 6.18945 39.5156 5.77148L40.4297 4.1543C40.6367 3.77539 40.916 3.58594 41.2676 3.58594H42.627C42.7793 3.58594 42.8711 3.63867 42.9023 3.74414V3.82617C42.9023 3.92383 42.8711 4.0332 42.8086 4.1543L41.5371 6.45703C41.3496 6.79297 41.1426 7.07031 40.916 7.28906C40.6895 7.50781 40.3906 7.66211 40.0195 7.75195C40.2773 7.80664 40.541 7.96875 40.8105 8.23828C41.084 8.50781 41.3262 8.80078 41.5371 9.11719L42.9961 11.4492C43.1016 11.6211 43.1309 11.7559 43.084 11.8535C43.041 11.9512 42.9453 12 42.7969 12H41.4492C41.2969 12 41.1328 11.9473 40.957 11.8418C40.7812 11.7324 40.6465 11.6016 40.5527 11.4492L39.5156 9.81445C39.2695 9.41602 39.0215 9.11719 38.7715 8.91797C38.5254 8.71484 38.2266 8.61328 37.875 8.61328H37.6113V11.4609C37.6113 11.6133 37.5566 11.7422 37.4473 11.8477C37.3418 11.9492 37.2129 12 37.0605 12H35.9531C35.8008 12 35.6699 11.9492 35.5605 11.8477C35.4551 11.7422 35.4023 11.6133 35.4023 11.4609V8.61328H35.1387C34.7871 8.61328 34.4863 8.71484 34.2363 8.91797C33.9902 9.11719 33.7422 9.41602 33.4922 9.81445L32.4609 11.4492C32.3672 11.6016 32.2324 11.7324 32.0566 11.8418C31.8809 11.9473 31.7168 12 31.5645 12H30.2168C30.0645 12 29.9688 11.9473 29.9297 11.8418C29.9141 11.8105 29.9062 11.7656 29.9062 11.707C29.9062 11.6445 29.9414 11.5586 30.0117 11.4492L31.4766 9.11719C31.6875 8.80078 31.9277 8.50781 32.1973 8.23828C32.4707 7.96875 32.7344 7.80664 32.9883 7.75195C32.6211 7.66211 32.3223 7.50781 32.0918 7.28906C31.8652 7.07031 31.6602 6.79297 31.4766 6.45703L30.2051 4.1543C30.1426 4.0332 30.1113 3.92383 30.1113 3.82617ZM43.9512 11.4492V4.1543C43.9512 4.00195 44.0059 3.87109 44.1152 3.76172C44.2246 3.65234 44.3594 3.59766 44.5195 3.59766H45.6094C45.7617 3.59766 45.8906 3.65234 45.9961 3.76172C46.1055 3.87109 46.1602 4.00195 46.1602 4.1543V6.79102H50.1914V4.1543C50.1914 4.00195 50.2461 3.87109 50.3555 3.76172C50.4648 3.65234 50.5957 3.59766 50.748 3.59766H51.8379C51.998 3.59766 52.1309 3.65234 52.2363 3.76172C52.3457 3.87109 52.4004 4.00195 52.4004 4.1543V11.4492C52.4004 11.6016 52.3438 11.7324 52.2305 11.8418C52.1211 11.9473 51.9902 12 51.8379 12H50.748C50.5957 12 50.4648 11.9492 50.3555 11.8477C50.2461 11.7422 50.1914 11.6133 50.1914 11.4609V8.44922H46.1602V11.4609C46.1602 11.6133 46.1055 11.7422 45.9961 11.8477C45.8906 11.9492 45.7617 12 45.6094 12H44.5195C44.3672 12 44.2344 11.9473 44.1211 11.8418C44.0078 11.7324 43.9512 11.6016 43.9512 11.4492ZM54.0879 11.4375V4.1543C54.0879 3.99414 54.1406 3.86133 54.2461 3.75586C54.3516 3.65039 54.4844 3.59766 54.6445 3.59766H55.7461C55.8984 3.59766 56.0273 3.65234 56.1328 3.76172C56.2422 3.87109 56.2969 4.00195 56.2969 4.1543V6.45703H58.7109C59.6289 6.45703 60.3906 6.70117 60.9961 7.18945C61.6016 7.67773 61.9043 8.35742 61.9043 9.22852C61.9043 10.0996 61.6016 10.7793 60.9961 11.2676C60.3906 11.7559 59.6289 12 58.7109 12H54.6152C54.4746 12 54.3516 11.9453 54.2461 11.8359C54.1406 11.7227 54.0879 11.5898 54.0879 11.4375ZM56.2969 10.3418H58.7109C59.3672 10.3418 59.6953 9.9707 59.6953 9.22852C59.6953 8.48242 59.3672 8.10938 58.7109 8.10938H56.2969V10.3418ZM63.0762 11.4609V4.1543C63.0762 4.00195 63.1309 3.87109 63.2402 3.76172C63.3496 3.65234 63.4805 3.59766 63.6328 3.59766H64.7461C64.9062 3.59766 65.0391 3.65234 65.1445 3.76172C65.2539 3.87109 65.3086 4.00195 65.3086 4.1543V11.4492C65.3086 11.6016 65.252 11.7324 65.1387 11.8418C65.0293 11.9473 64.8984 12 64.7461 12H63.6328C63.4805 12 63.3496 11.9492 63.2402 11.8477C63.1309 11.7422 63.0762 11.6133 63.0762 11.4609ZM66.9902 11.4492V4.1543C66.9902 3.99414 67.043 3.86133 67.1484 3.75586C67.2539 3.65039 67.3867 3.59766 67.5469 3.59766H68.5781C68.7305 3.59766 68.8594 3.65039 68.9648 3.75586C69.0742 3.86133 69.1289 3.99023 69.1289 4.14258V10.0078L72.4629 4.1543C72.5527 4.00195 72.6758 3.87109 72.832 3.76172C72.9883 3.65234 73.1328 3.59766 73.2656 3.59766H74.9941C75.1465 3.59766 75.2754 3.65234 75.3809 3.76172C75.4863 3.87109 75.5391 4.00195 75.5391 4.1543V11.4492C75.5391 11.6016 75.4844 11.7324 75.375 11.8418C75.2656 11.9473 75.1348 12 74.9824 12H73.9512C73.7988 12 73.668 11.9473 73.5586 11.8418C73.4531 11.7324 73.4004 11.6016 73.4004 11.4492V6.01172L70.3418 11.4492C70.252 11.6016 70.125 11.7324 69.9609 11.8418C69.7969 11.9473 69.6387 12 69.4863 12H67.5469C67.3945 12 67.2637 11.9473 67.1543 11.8418C67.0449 11.7324 66.9902 11.6016 66.9902 11.4492ZM69.2988 1.20117C69.2988 1.00195 69.4062 0.902344 69.6211 0.902344H70.1016C70.293 0.902344 70.4277 1.00195 70.5059 1.20117C70.6191 1.47852 70.8711 1.61719 71.2617 1.61719C71.6562 1.61719 71.9082 1.47852 72.0176 1.20117C72.0996 1.00195 72.2363 0.902344 72.4277 0.902344H72.9082C73.123 0.902344 73.2305 1.00195 73.2305 1.20117C73.2305 1.73633 73.0508 2.16016 72.6914 2.47266C72.332 2.78516 71.8555 2.94141 71.2617 2.94141C70.6719 2.94141 70.1973 2.78516 69.8379 2.47266C69.4785 2.16016 69.2988 1.73633 69.2988 1.20117ZM2.61328 25.2363L3.59766 25.3418H3.7207C4.49805 25.3418 5.0293 24.834 5.31445 23.8184H4.81055C3.82617 23.8184 3.05859 23.6191 2.50781 23.2207C1.95703 22.8184 1.48438 22.166 1.08984 21.2637L0.169922 19.1543C0.103516 18.998 0.101562 18.8672 0.164062 18.7617C0.230469 18.6523 0.339844 18.5977 0.492188 18.5977H1.72852C2.10352 18.5977 2.36328 18.7754 2.50781 19.1309L3.18164 20.7598C3.38086 21.2324 3.63086 21.5859 3.93164 21.8203C4.23242 22.0508 4.62891 22.166 5.12109 22.166H5.8418L6.90234 19.1426C6.95703 18.9746 7.05273 18.8418 7.18945 18.7441C7.32617 18.6465 7.47461 18.5977 7.63477 18.5977H8.81836C8.9707 18.5977 9.07617 18.6406 9.13477 18.7266C9.19336 18.8086 9.22266 18.8828 9.22266 18.9492C9.22266 19.0117 9.21289 19.0723 9.19336 19.1309L7.2832 24.5977C7.01758 25.3672 6.61719 25.9609 6.08203 26.3789C5.54688 26.793 4.79883 27 3.83789 27H2.42578C2.27344 27 2.14258 26.9473 2.0332 26.8418C1.92383 26.7324 1.86914 26.6016 1.86914 26.4492V25.7871C1.86914 25.6348 1.92188 25.5059 2.02734 25.4004C2.13281 25.291 2.26562 25.2363 2.42578 25.2363H2.61328ZM10.1895 26.4609V19.1543C10.1895 18.9941 10.2422 18.8613 10.3477 18.7559C10.4531 18.6504 10.5859 18.5977 10.7461 18.5977H16.4062C16.5664 18.5977 16.6973 18.6504 16.7988 18.7559C16.9043 18.8613 16.957 18.9941 16.957 19.1543V19.7051C16.957 19.8652 16.9043 19.998 16.7988 20.1035C16.6973 20.2051 16.5664 20.2559 16.4062 20.2559H12.3984V26.4609C12.3984 26.6133 12.3438 26.7422 12.2344 26.8477C12.1289 26.9492 12 27 11.8477 27H10.7461C10.5938 27 10.4629 26.9492 10.3535 26.8477C10.2441 26.7422 10.1895 26.6133 10.1895 26.4609ZM25.5 26.1328C24.7031 26.832 23.5312 27.1816 21.9844 27.1816C20.4414 27.1816 19.2695 26.832 18.4688 26.1328C17.668 25.4297 17.2676 24.3184 17.2676 22.7988C17.2676 21.2793 17.668 20.1699 18.4688 19.4707C19.2695 18.7715 20.4414 18.4219 21.9844 18.4219C23.5312 18.4219 24.7031 18.7715 25.5 19.4707C26.3008 20.1699 26.7012 21.2793 26.7012 22.7988C26.7012 24.3184 26.3008 25.4297 25.5 26.1328ZM23.9004 20.707C23.5059 20.2383 22.8672 20.0039 21.9844 20.0039C21.1055 20.0039 20.4668 20.2383 20.0684 20.707C19.6738 21.1758 19.4766 21.875 19.4766 22.8047C19.4766 23.7305 19.6738 24.4277 20.0684 24.8965C20.4668 25.3613 21.1055 25.5938 21.9844 25.5938C22.8672 25.5938 23.5059 25.3613 23.9004 24.8965C24.2949 24.4277 24.4922 23.7305 24.4922 22.8047C24.4922 21.875 24.2949 21.1758 23.9004 20.707ZM27.2168 26.5078L28.7051 20.8828C29.1035 19.3633 30.3984 18.6016 32.5898 18.5977H35.5195C35.6562 18.5977 35.7715 18.6543 35.8652 18.7676C35.9629 18.8809 36.0117 19.0098 36.0117 19.1543V26.4492C36.0117 26.6016 35.959 26.7324 35.8535 26.8418C35.752 26.9473 35.625 27 35.4727 27H34.3535C34.2012 27 34.0703 26.9473 33.9609 26.8418C33.8555 26.7324 33.8027 26.6016 33.8027 26.4492V20.2559H32.373C31.998 20.2559 31.6699 20.3633 31.3887 20.5781C31.1113 20.7891 30.9238 21.0742 30.8262 21.4336L29.4844 26.4492C29.4453 26.6094 29.3574 26.7422 29.2207 26.8477C29.084 26.9492 28.9395 27 28.7871 27H27.5977C27.4609 27 27.3594 26.957 27.293 26.8711C27.2305 26.7852 27.1992 26.7129 27.1992 26.6543C27.2031 26.5957 27.209 26.5469 27.2168 26.5078ZM45.4453 26.1328C44.6484 26.832 43.4766 27.1816 41.9297 27.1816C40.3867 27.1816 39.2148 26.832 38.4141 26.1328C37.6133 25.4297 37.2129 24.3184 37.2129 22.7988C37.2129 21.2793 37.6133 20.1699 38.4141 19.4707C39.2148 18.7715 40.3867 18.4219 41.9297 18.4219C43.4766 18.4219 44.6484 18.7715 45.4453 19.4707C46.2461 20.1699 46.6465 21.2793 46.6465 22.7988C46.6465 24.3184 46.2461 25.4297 45.4453 26.1328ZM43.8457 20.707C43.4512 20.2383 42.8125 20.0039 41.9297 20.0039C41.0508 20.0039 40.4121 20.2383 40.0137 20.707C39.6191 21.1758 39.4219 21.875 39.4219 22.8047C39.4219 23.7305 39.6191 24.4277 40.0137 24.8965C40.4121 25.3613 41.0508 25.5938 41.9297 25.5938C42.8125 25.5938 43.4512 25.3613 43.8457 24.8965C44.2402 24.4277 44.4375 23.7305 44.4375 22.8047C44.4375 21.875 44.2402 21.1758 43.8457 20.707ZM56.5488 26.7422C56.5488 26.9141 56.4473 27 56.2441 27H54.9023C54.75 27 54.5859 26.9473 54.4102 26.8418C54.2344 26.7324 54.0977 26.6016 54 26.4492L52.9688 24.8145C52.7227 24.416 52.4746 24.1172 52.2246 23.918C51.9746 23.7148 51.6738 23.6133 51.3223 23.6133H50.0625V26.4609C50.0625 26.6133 50.0078 26.7422 49.8984 26.8477C49.793 26.9492 49.6641 27 49.5117 27H48.4102C48.2578 27 48.127 26.9453 48.0176 26.8359C47.9082 26.7227 47.8535 26.5898 47.8535 26.4375V19.1543C47.8535 19.002 47.9082 18.8691 48.0176 18.7559C48.127 18.6426 48.2578 18.5859 48.4102 18.5859H49.5117C49.6641 18.5859 49.793 18.6426 49.8984 18.7559C50.0078 18.8691 50.0625 19.002 50.0625 19.1543V21.9609H51.3223C51.666 21.9609 51.9668 21.8672 52.2246 21.6797C52.4863 21.4922 52.7344 21.1895 52.9688 20.7715L53.877 19.1543C54.084 18.7793 54.3652 18.5898 54.7207 18.5859H56.0742C56.2617 18.5859 56.3555 18.668 56.3555 18.832C56.3555 18.9219 56.3223 19.0293 56.2559 19.1543L54.9844 21.457C54.8008 21.793 54.5938 22.0703 54.3633 22.2891C54.1367 22.5078 53.8398 22.6621 53.4727 22.752C53.7305 22.8066 53.9941 22.9688 54.2637 23.2383C54.5371 23.5078 54.7773 23.8008 54.9844 24.1172L56.4492 26.4492C56.5156 26.5625 56.5488 26.6602 56.5488 26.7422Z" fill="white"/>
</svg>
