<svg width="20" height="20" viewBox="0 0 20 20" fill="none" xmlns="http://www.w3.org/2000/svg">
<path d="M0 10C0 15.5234 4.47656 20 10 20C15.5234 20 20 15.5234 20 10C20 4.47656 15.5234 0 10 0C4.47656 0 0 4.47656 0 10ZM9.41406 14.7266C9.04688 15.0938 8.45312 15.0938 8.08984 14.7266C7.72656 14.3594 7.72266 13.7656 8.08984 13.4023L11.4883 10.0039L8.08984 6.60547C7.72266 6.23828 7.72266 5.64453 8.08984 5.28125C8.45703 4.91797 9.05078 4.91406 9.41406 5.28125L13.4766 9.33594C13.8438 9.70312 13.8438 10.2969 13.4766 10.6602L9.41406 14.7266Z" fill="black"/>
</svg>
