<svg width="30" height="35" viewBox="0 0 30 35" fill="none" xmlns="http://www.w3.org/2000/svg">
<path d="M10.7143 7.5C10.7143 5.13616 12.6362 3.21429 15 3.21429C17.3638 3.21429 19.2857 5.13616 19.2857 7.5V10.7143H10.7143V7.5ZM7.5 10.7143H3.21429C1.43973 10.7143 0 12.154 0 13.9286V27.8571C0 31.4062 2.87946 34.2857 6.42857 34.2857H23.5714C27.1205 34.2857 30 31.4062 30 27.8571V13.9286C30 12.154 28.5603 10.7143 26.7857 10.7143H22.5V7.5C22.5 3.35491 19.1451 0 15 0C10.8549 0 7.5 3.35491 7.5 7.5V10.7143ZM9.10714 17.1429C8.21652 17.1429 7.5 16.4263 7.5 15.5357C7.5 14.6451 8.21652 13.9286 9.10714 13.9286C9.99777 13.9286 10.7143 14.6451 10.7143 15.5357C10.7143 16.4263 9.99777 17.1429 9.10714 17.1429ZM22.5 15.5357C22.5 16.4263 21.7835 17.1429 20.8929 17.1429C20.0022 17.1429 19.2857 16.4263 19.2857 15.5357C19.2857 14.6451 20.0022 13.9286 20.8929 13.9286C21.7835 13.9286 22.5 14.6451 22.5 15.5357Z" fill="white"/>
</svg>
