<svg width="138" height="29" viewBox="0 0 138 29" fill="none" xmlns="http://www.w3.org/2000/svg">
<path d="M50.723 10.1791L50.6723 19.6047L50.1486 20.7196C49.1351 22.848 47.5473 23.8784 45.0811 24.0473L43.6621 24.1318V26.125V28.1351L44.6419 28.1689C47.2432 28.2365 49.1013 27.8142 50.9088 26.7331C52.1925 25.9561 53.6621 24.3176 54.3716 22.8649C55.5709 20.4155 55.554 20.6351 55.6216 10.1791L55.6723 0.770273H53.223H50.7736L50.723 10.1791Z" fill="white"/>
<path d="M100.166 0.922292C100.216 1.02364 105.824 6.09121 112.632 12.2061C119.422 18.3209 126.196 24.402 127.666 25.7196L130.351 28.1351H134.084L137.834 28.1182L137.412 27.7466C136.534 26.9696 113.73 6.47973 110.639 3.69256L107.429 0.787157L103.747 0.770265C101.466 0.770265 100.098 0.837833 100.166 0.922292Z" fill="white"/>
<path d="M126.128 4.6892L121.753 8.62501L125.453 8.67569L129.152 8.70947L133.324 4.97636C135.622 2.91555 137.615 1.12501 137.75 0.989878C137.953 0.804068 137.395 0.770284 134.236 0.770284H130.486L126.128 4.6892Z" fill="white"/>
<path d="M18.7973 1.47972C17.2095 3.6081 16.1622 5.24662 16.2635 5.43243C16.3311 5.55067 19.8784 10.7027 24.152 16.8851L31.9223 28.1182L35.0135 28.1351C37.4459 28.1351 38.0878 28.0845 37.9865 27.9155C37.7669 27.5777 19.473 1.20945 19.3378 1.05743C19.2703 0.972968 19.0169 1.15878 18.7973 1.47972Z" fill="white"/>
<path d="M76.2297 1.47972C74.6588 3.59121 73.5946 5.24662 73.6959 5.41554C73.7635 5.53378 77.3108 10.6858 81.5844 16.8682L89.3547 28.1182L92.4459 28.1351C94.8784 28.1351 95.5203 28.0845 95.4189 27.9155C95.1993 27.5777 76.9054 1.20945 76.7703 1.05743C76.7027 0.972968 76.4493 1.15878 76.2297 1.47972Z" fill="white"/>
<path d="M6.83782 18.625C4.47296 22.0372 2.00674 25.5676 1.38174 26.4797L0.233093 28.1351H3.32431H6.41553L10.8412 21.75C13.2736 18.2534 15.723 14.723 16.2804 13.8953L17.3108 12.4257H14.2196H11.1453L6.83782 18.625Z" fill="white"/>
<path d="M64.152 18.8108C61.7196 22.3074 59.2703 25.8378 58.6959 26.6486L57.6655 28.1351H60.7567H63.8649L68.2736 21.75C70.7061 18.2534 73.1554 14.723 73.7128 13.8953L74.7432 12.4257H71.6689H68.5777L64.152 18.8108Z" fill="white"/>
<path d="M104.524 24.1149C102.209 26.1588 100.267 27.9155 100.182 28C100.081 28.0676 101.72 28.1351 103.814 28.1351L107.598 28.1182L111.77 24.3682C114.068 22.2905 115.993 20.5507 116.061 20.4831C116.128 20.4155 114.507 20.3649 112.446 20.3649H108.696L104.524 24.1149Z" fill="white"/>
</svg>
